<svg id="svg" version="1.1" xmlns="http://www.w3.org/2000/svg" xmlns:xlink="http://www.w3.org/1999/xlink" width="400" height="400" viewBox="0, 0, 400,400"><g id="svgg"><path id="path0" d="M94.000 23.600 L 94.000 47.200 127.100 47.259 C 145.305 47.291,192.870 47.426,232.800 47.559 L 305.400 47.800 305.600 200.600 L 305.800 353.400 329.300 353.503 L 352.800 353.606 352.800 176.803 L 352.800 0.000 223.400 0.000 L 94.000 0.000 94.000 23.600 " stroke="none" fill="#8187ea" fill-rule="evenodd"></path><path id="path1" d="M140.600 47.612 C 165.900 47.761,213.285 47.909,245.900 47.941 L 305.200 48.000 305.200 200.576 C 305.200 284.493,305.335 353.236,305.500 353.338 C 305.665 353.440,305.755 284.775,305.699 200.749 C 305.619 79.118,305.496 47.943,305.099 47.820 C 304.825 47.735,257.350 47.592,199.600 47.503 C 138.364 47.408,113.773 47.453,140.600 47.612 M131.312 123.694 L 117.996 136.988 110.698 129.795 L 103.400 122.603 110.697 129.997 L 117.993 137.391 131.402 124.004 L 144.810 110.618 153.105 118.809 L 161.400 127.000 153.204 118.700 C 148.696 114.135,144.922 110.400,144.817 110.400 C 144.713 110.400,138.636 116.382,131.312 123.694 M94.081 130.570 C 89.856 134.828,86.403 138.556,86.406 138.856 C 86.411 139.289,86.487 139.282,86.780 138.819 C 86.982 138.500,90.521 134.857,94.645 130.724 C 98.768 126.591,102.057 123.123,101.952 123.019 C 101.847 122.914,98.306 126.312,94.081 130.570 M154.468 133.727 C 153.235 135.040,153.387 135.449,154.642 134.194 C 155.216 133.621,155.606 133.073,155.511 132.977 C 155.415 132.882,154.946 133.219,154.468 133.727 M151.393 136.807 C 150.537 137.683,149.970 138.400,150.132 138.400 C 150.540 138.400,153.319 135.586,153.114 135.381 C 153.023 135.289,152.248 135.931,151.393 136.807 M176.800 154.000 L 176.800 165.600 217.600 165.600 L 258.400 165.600 258.400 154.000 L 258.400 142.400 217.600 142.400 L 176.800 142.400 176.800 154.000 M98.051 150.665 C 98.973 151.783,100.985 153.767,101.815 154.378 C 102.247 154.695,101.526 153.840,100.213 152.478 C 97.955 150.135,96.847 149.206,98.051 150.665 M135.802 152.398 C 135.403 152.839,135.207 153.200,135.367 153.200 C 135.788 153.200,136.928 151.995,136.712 151.779 C 136.611 151.678,136.202 151.956,135.802 152.398 M133.600 154.600 C 133.083 155.150,132.790 155.600,132.948 155.600 C 133.107 155.600,133.686 155.150,134.236 154.600 C 134.786 154.050,135.080 153.600,134.888 153.600 C 134.696 153.600,134.117 154.050,133.600 154.600 M114.421 166.985 C 115.613 168.602,117.691 170.399,118.334 170.368 C 118.880 170.343,118.892 170.298,118.400 170.121 C 118.070 170.002,116.909 169.071,115.821 168.052 C 114.733 167.034,114.103 166.553,114.421 166.985 M143.570 170.300 L 142.600 171.400 143.800 170.400 C 144.460 169.850,145.075 169.355,145.167 169.300 C 145.258 169.245,145.155 169.200,144.936 169.200 C 144.718 169.200,144.103 169.695,143.570 170.300 M151.015 175.300 C 154.087 178.435,157.590 181.892,158.800 182.982 C 160.010 184.071,157.582 181.506,153.404 177.282 C 149.226 173.057,145.723 169.600,145.619 169.600 C 145.516 169.600,147.944 172.165,151.015 175.300 M131.795 182.100 L 126.200 187.800 131.900 182.205 C 137.195 177.008,137.781 176.400,137.495 176.400 C 137.437 176.400,134.872 178.965,131.795 182.100 M94.496 188.904 C 90.043 193.361,86.400 197.186,86.400 197.405 C 86.400 197.625,93.465 204.823,102.100 213.402 L 117.800 229.000 102.300 213.398 C 93.775 204.817,86.800 197.619,86.800 197.402 C 86.800 197.185,90.443 193.361,94.896 188.904 C 99.349 184.447,102.903 180.800,102.793 180.800 C 102.683 180.800,98.949 184.447,94.496 188.904 M105.400 183.600 C 107.764 185.989,109.017 186.948,107.170 184.953 C 105.181 182.807,103.512 181.200,103.273 181.200 C 103.136 181.200,104.094 182.280,105.400 183.600 M160.832 185.599 C 160.814 185.928,151.215 195.828,139.500 207.599 L 118.201 229.000 139.750 207.550 C 153.417 193.946,161.220 185.898,161.081 185.550 C 160.908 185.113,160.857 185.123,160.832 185.599 M119.800 194.000 C 118.564 195.290,117.690 195.494,116.799 194.700 C 116.322 194.275,116.318 194.304,116.768 194.900 C 117.565 195.953,118.496 195.752,120.000 194.200 C 120.746 193.430,121.265 192.800,121.153 192.800 C 121.041 192.800,120.432 193.340,119.800 194.000 M176.800 212.600 L 176.800 224.400 217.600 224.400 L 258.400 224.400 258.400 212.600 L 258.400 200.800 217.600 200.800 L 176.800 200.800 176.800 212.600 M131.412 240.893 L 118.200 254.187 131.505 241.002 L 144.811 227.818 153.105 236.009 L 161.400 244.200 153.204 235.900 C 148.696 231.335,144.921 227.600,144.816 227.600 C 144.711 227.600,138.679 233.582,131.412 240.893 M94.287 247.523 C 86.101 255.746,85.947 255.946,87.100 256.851 C 87.734 257.349,87.749 257.334,87.251 256.700 C 86.786 256.107,86.786 255.897,87.251 255.324 C 88.771 253.451,102.536 240.000,102.933 240.000 C 103.185 240.000,106.634 243.195,110.596 247.100 L 117.800 254.200 110.604 246.900 C 106.646 242.885,103.131 239.600,102.791 239.600 C 102.451 239.600,98.625 243.165,94.287 247.523 M152.589 252.811 C 151.067 254.345,149.937 255.600,150.077 255.600 C 150.460 255.600,155.712 250.378,155.521 250.187 C 155.430 250.097,154.111 251.278,152.589 252.811 M176.800 271.200 L 176.800 282.800 217.600 282.800 L 258.400 282.800 258.400 271.200 L 258.400 259.600 217.600 259.600 L 176.800 259.600 176.800 271.200 M95.234 265.047 C 95.765 265.733,96.280 266.223,96.379 266.135 C 96.477 266.047,96.043 265.486,95.413 264.888 L 94.269 263.800 95.234 265.047 M97.630 267.458 C 99.067 269.026,100.148 270.083,101.442 271.190 C 102.079 271.734,101.345 270.879,99.811 269.290 C 97.165 266.548,95.563 265.202,97.630 267.458 M138.068 267.327 C 136.835 268.640,136.987 269.049,138.242 267.794 C 138.816 267.221,139.206 266.673,139.111 266.577 C 139.015 266.482,138.546 266.819,138.068 267.327 M135.802 269.598 C 135.403 270.039,135.207 270.400,135.367 270.400 C 135.788 270.400,136.928 269.195,136.712 268.979 C 136.611 268.878,136.202 269.156,135.802 269.598 M133.600 271.800 C 133.083 272.350,132.790 272.800,132.948 272.800 C 133.107 272.800,133.686 272.350,134.236 271.800 C 134.786 271.250,135.080 270.800,134.888 270.800 C 134.696 270.800,134.117 271.250,133.600 271.800 M114.009 283.747 C 116.146 286.219,117.709 287.599,118.340 287.568 C 118.885 287.542,118.895 287.499,118.400 287.322 C 118.070 287.203,116.724 286.092,115.409 284.853 C 114.094 283.614,113.464 283.116,114.009 283.747 M121.668 283.727 C 120.435 285.040,120.587 285.449,121.842 284.194 C 122.416 283.621,122.806 283.073,122.711 282.977 C 122.615 282.882,122.146 283.219,121.668 283.727 M119.402 285.998 C 119.003 286.439,118.807 286.800,118.967 286.800 C 119.388 286.800,120.528 285.595,120.312 285.379 C 120.211 285.278,119.802 285.556,119.402 285.998 M62.000 338.600 C 62.746 339.370,63.447 340.000,63.557 340.000 C 63.667 340.000,63.146 339.370,62.400 338.600 C 61.654 337.830,60.953 337.200,60.843 337.200 C 60.733 337.200,61.254 337.830,62.000 338.600 M94.800 371.400 C 95.546 372.170,96.247 372.800,96.357 372.800 C 96.467 372.800,95.946 372.170,95.200 371.400 C 94.454 370.630,93.753 370.000,93.643 370.000 C 93.533 370.000,94.054 370.630,94.800 371.400 M112.000 388.600 C 112.746 389.370,113.447 390.000,113.557 390.000 C 113.667 390.000,113.146 389.370,112.400 388.600 C 111.654 387.830,110.953 387.200,110.843 387.200 C 110.733 387.200,111.254 387.830,112.000 388.600 " stroke="none" fill="#c4cce4" fill-rule="evenodd"></path><path id="path2" d="M94.342 47.702 C 94.508 47.868,113.084 47.958,135.622 47.902 L 176.600 47.800 135.320 47.600 C 112.616 47.490,94.176 47.536,94.342 47.702 M176.749 95.000 C 176.721 120.850,176.698 173.770,176.698 212.600 C 176.698 251.430,176.721 309.480,176.749 341.600 L 176.800 400.000 241.400 400.000 L 306.000 400.000 306.000 376.824 C 306.000 361.804,305.859 353.560,305.600 353.400 C 305.334 353.236,305.200 301.863,305.200 200.576 L 305.200 48.000 241.000 48.000 L 176.800 48.000 176.749 95.000 M144.574 110.442 C 144.406 110.715,144.445 110.820,144.664 110.684 C 145.530 110.149,161.437 126.729,160.893 127.600 C 160.618 128.040,160.531 128.400,160.700 128.400 C 163.067 128.400,153.475 117.131,145.336 110.348 C 145.030 110.093,144.770 110.125,144.574 110.442 M135.800 118.800 C 133.167 121.440,131.103 123.600,131.213 123.600 C 131.323 123.600,133.567 121.440,136.200 118.800 C 138.833 116.160,140.897 114.000,140.787 114.000 C 140.677 114.000,138.433 116.160,135.800 118.800 M101.106 123.245 L 99.800 124.491 101.131 123.445 C 102.825 122.114,102.869 122.119,104.899 123.855 L 106.600 125.311 104.915 123.655 C 102.897 121.671,102.771 121.658,101.106 123.245 M113.899 132.800 L 117.999 136.994 120.899 134.001 L 123.800 131.007 120.898 133.795 L 117.997 136.582 113.898 132.593 L 109.800 128.605 113.899 132.800 M158.800 129.800 C 158.283 130.350,157.990 130.800,158.148 130.800 C 158.307 130.800,158.886 130.350,159.436 129.800 C 159.986 129.250,160.280 128.800,160.088 128.800 C 159.896 128.800,159.317 129.250,158.800 129.800 M88.666 135.561 C 85.701 138.632,85.672 138.700,86.800 140.000 C 87.240 140.507,87.600 140.737,87.600 140.510 C 87.600 140.283,87.330 139.874,87.000 139.600 C 86.132 138.880,86.231 138.576,87.900 136.841 C 91.096 133.518,91.742 132.800,91.540 132.800 C 91.425 132.800,90.132 134.042,88.666 135.561 M152.460 136.251 C 151.943 136.802,151.596 137.329,151.689 137.422 C 151.782 137.515,152.374 137.054,153.004 136.396 C 153.634 135.738,153.981 135.211,153.775 135.224 C 153.569 135.238,152.977 135.700,152.460 136.251 M148.468 140.127 C 147.235 141.440,147.387 141.849,148.642 140.594 C 149.216 140.021,149.606 139.473,149.511 139.377 C 149.415 139.282,148.946 139.619,148.468 140.127 M88.800 141.721 C 88.800 142.124,93.217 146.517,93.419 146.315 C 93.507 146.227,92.504 145.090,91.190 143.790 C 89.875 142.489,88.800 141.558,88.800 141.721 M258.400 154.000 L 258.400 165.600 217.600 165.600 L 176.800 165.600 176.800 154.000 L 176.800 142.400 217.600 142.400 L 258.400 142.400 258.400 154.000 M144.196 144.404 C 143.566 145.062,143.182 145.600,143.343 145.600 C 143.756 145.600,145.722 143.588,145.513 143.380 C 145.419 143.286,144.826 143.746,144.196 144.404 M140.000 148.600 C 139.483 149.150,139.190 149.600,139.348 149.600 C 139.507 149.600,140.086 149.150,140.636 148.600 C 141.186 148.050,141.480 147.600,141.288 147.600 C 141.096 147.600,140.517 148.050,140.000 148.600 M97.684 150.921 C 99.305 152.550,100.249 153.037,98.800 151.497 C 98.030 150.678,97.258 150.007,97.084 150.004 C 96.910 150.002,97.180 150.414,97.684 150.921 M136.060 152.651 C 135.543 153.202,135.196 153.729,135.289 153.822 C 135.382 153.915,135.974 153.454,136.604 152.796 C 137.234 152.138,137.581 151.611,137.375 151.624 C 137.169 151.638,136.577 152.100,136.060 152.651 M105.200 158.118 C 105.200 158.519,110.417 163.716,110.618 163.515 C 110.706 163.428,109.522 162.111,107.989 160.589 C 106.455 159.067,105.200 157.955,105.200 158.118 M129.668 158.927 C 128.435 160.240,128.587 160.649,129.842 159.394 C 130.416 158.821,130.806 158.273,130.711 158.177 C 130.615 158.082,130.146 158.419,129.668 158.927 M127.402 161.198 C 127.003 161.639,126.807 162.000,126.967 162.000 C 127.388 162.000,128.528 160.795,128.312 160.579 C 128.211 160.478,127.802 160.756,127.402 161.198 M124.400 164.200 C 123.428 165.190,122.766 166.000,122.927 166.000 C 123.089 166.000,124.031 165.190,125.021 164.200 C 126.011 163.210,126.674 162.400,126.494 162.400 C 126.314 162.400,125.372 163.210,124.400 164.200 M114.263 167.600 C 114.851 168.260,115.406 168.727,115.496 168.637 C 115.717 168.416,113.941 166.400,113.525 166.400 C 113.343 166.400,113.675 166.940,114.263 167.600 M119.600 169.200 C 118.392 170.621,117.778 170.685,116.740 169.500 L 115.953 168.600 116.622 169.700 C 117.513 171.162,118.365 171.087,120.000 169.400 C 120.746 168.630,121.187 168.005,120.978 168.012 C 120.770 168.019,120.150 168.553,119.600 169.200 M131.385 181.836 C 124.210 189.006,118.406 194.939,118.487 195.021 C 118.569 195.102,124.477 189.326,131.616 182.184 C 138.754 175.043,144.755 169.200,144.949 169.200 C 145.144 169.200,146.945 170.771,148.952 172.690 L 152.600 176.181 149.008 172.490 C 147.033 170.461,145.195 168.800,144.924 168.800 C 144.653 168.800,138.561 174.666,131.385 181.836 M94.416 188.545 C 89.917 193.025,86.161 196.917,86.069 197.194 C 85.860 197.819,117.168 229.200,118.000 229.200 C 118.331 229.200,128.232 219.525,140.001 207.700 L 161.400 186.200 139.999 207.500 C 128.228 219.215,118.327 228.800,117.997 228.800 C 117.345 228.800,86.400 198.050,86.400 197.402 C 86.400 196.569,102.513 180.868,103.126 181.104 C 103.521 181.255,103.631 181.173,103.442 180.868 C 102.948 180.069,102.804 180.192,94.416 188.545 M104.888 182.613 C 105.486 183.243,106.047 183.677,106.135 183.579 C 106.223 183.480,105.733 182.965,105.047 182.434 L 103.800 181.469 104.888 182.613 M160.104 183.885 C 160.665 184.592,161.206 185.402,161.307 185.685 C 161.408 185.968,161.626 186.075,161.791 185.921 C 161.956 185.768,161.414 184.958,160.587 184.121 C 159.341 182.860,159.258 182.820,160.104 183.885 M111.786 189.586 C 114.852 192.658,117.431 195.102,117.516 195.018 C 117.714 194.819,106.906 184.000,106.509 184.000 C 106.345 184.000,108.720 186.514,111.786 189.586 M258.400 212.600 L 258.400 224.400 217.600 224.400 L 176.800 224.400 176.800 212.600 L 176.800 200.800 217.600 200.800 L 258.400 200.800 258.400 212.600 M144.400 227.624 C 144.400 227.857,144.547 227.957,144.726 227.846 C 145.551 227.336,161.412 243.969,160.893 244.800 C 160.618 245.240,160.531 245.600,160.700 245.600 C 160.869 245.600,161.226 245.250,161.493 244.823 C 161.931 244.121,161.163 243.234,153.529 235.623 C 145.473 227.592,144.400 226.652,144.400 227.624 M135.800 236.000 C 133.167 238.640,131.103 240.800,131.213 240.800 C 131.323 240.800,133.567 238.640,136.200 236.000 C 138.833 233.360,140.897 231.200,140.787 231.200 C 140.677 231.200,138.433 233.360,135.800 236.000 M104.800 241.000 C 105.546 241.770,106.247 242.400,106.357 242.400 C 106.467 242.400,105.946 241.770,105.200 241.000 C 104.454 240.230,103.753 239.600,103.643 239.600 C 103.533 239.600,104.054 240.230,104.800 241.000 M113.900 250.000 L 117.999 254.195 121.300 250.800 L 124.600 247.406 121.299 250.595 L 117.998 253.783 113.899 249.794 L 109.800 245.805 113.900 250.000 M158.000 247.800 C 157.028 248.790,156.366 249.600,156.527 249.600 C 156.689 249.600,157.631 248.790,158.621 247.800 C 159.611 246.810,160.274 246.000,160.094 246.000 C 159.914 246.000,158.972 246.810,158.000 247.800 M88.666 252.761 C 85.701 255.832,85.672 255.900,86.800 257.200 C 87.240 257.707,87.600 257.937,87.600 257.710 C 87.600 257.483,87.330 257.074,87.000 256.800 C 86.063 256.022,86.226 255.703,89.066 252.761 C 90.532 251.242,91.641 250.000,91.531 250.000 C 91.421 250.000,90.132 251.242,88.666 252.761 M152.860 253.042 C 152.562 253.378,152.399 253.732,152.495 253.829 C 152.592 253.926,152.998 253.644,153.398 253.202 C 153.797 252.761,153.961 252.407,153.762 252.415 C 153.563 252.424,153.157 252.705,152.860 253.042 M147.675 258.124 C 146.754 259.062,146.000 259.963,146.000 260.126 C 146.000 260.288,146.827 259.594,147.839 258.582 C 148.850 257.571,149.604 256.670,149.514 256.580 C 149.424 256.490,148.596 257.185,147.675 258.124 M88.000 258.118 C 88.000 258.519,93.217 263.716,93.418 263.515 C 93.506 263.428,92.322 262.111,90.789 260.589 C 89.255 259.067,88.000 257.955,88.000 258.118 M258.400 271.200 L 258.400 282.800 217.600 282.800 L 176.800 282.800 176.800 271.200 L 176.800 259.600 217.600 259.600 L 258.400 259.600 258.400 271.200 M142.188 263.612 C 140.445 265.365,139.152 266.800,139.316 266.800 C 139.716 266.800,145.716 260.782,145.515 260.582 C 145.428 260.495,143.931 261.859,142.188 263.612 M94.564 265.000 C 95.114 265.550,95.693 266.000,95.852 266.000 C 96.010 266.000,95.717 265.550,95.200 265.000 C 94.683 264.450,94.104 264.000,93.912 264.000 C 93.720 264.000,94.014 264.450,94.564 265.000 M97.102 267.571 C 97.701 268.215,98.269 268.665,98.364 268.570 C 98.585 268.348,96.766 266.400,96.337 266.400 C 96.159 266.400,96.503 266.927,97.102 267.571 M136.060 269.851 C 135.543 270.402,135.196 270.929,135.289 271.022 C 135.382 271.115,135.974 270.654,136.604 269.996 C 137.234 269.338,137.581 268.811,137.375 268.824 C 137.169 268.838,136.577 269.300,136.060 269.851 M101.041 271.537 C 101.679 272.163,102.276 272.612,102.368 272.536 C 102.618 272.329,100.724 270.400,100.272 270.400 C 100.058 270.400,100.404 270.912,101.041 271.537 M127.786 278.014 C 124.940 280.866,122.746 283.200,122.910 283.200 C 123.307 283.200,133.314 273.181,133.116 272.982 C 133.031 272.897,130.632 275.161,127.786 278.014 M104.400 274.516 C 104.400 274.916,110.418 280.916,110.618 280.715 C 110.705 280.628,109.341 279.131,107.588 277.388 C 105.835 275.645,104.400 274.352,104.400 274.516 M114.659 285.113 C 115.946 286.384,117.076 287.374,117.169 287.311 C 117.411 287.146,113.068 282.805,112.659 282.802 C 112.471 282.801,113.371 283.841,114.659 285.113 M119.660 286.251 C 119.143 286.802,118.796 287.329,118.889 287.422 C 118.982 287.515,119.574 287.054,120.204 286.396 C 120.834 285.738,121.181 285.211,120.975 285.224 C 120.769 285.238,120.177 285.700,119.660 286.251 M47.201 314.898 L 47.202 323.400 55.401 331.574 C 59.911 336.070,63.600 339.925,63.600 340.141 C 63.600 340.357,63.690 340.443,63.801 340.332 C 63.998 340.135,78.548 354.545,79.172 355.555 C 79.347 355.837,79.649 356.028,79.845 355.980 C 80.040 355.931,80.378 356.275,80.595 356.745 C 80.812 357.215,81.090 357.600,81.213 357.600 C 81.335 357.600,84.758 360.948,88.818 365.039 C 97.662 373.951,96.168 372.458,105.762 381.975 C 110.073 386.251,113.600 389.926,113.600 390.142 C 113.600 390.357,113.697 390.436,113.817 390.317 C 114.036 390.097,122.888 398.944,123.133 399.628 C 123.210 399.843,127.147 400.000,132.435 400.000 L 141.603 400.000 141.502 353.300 L 141.400 306.600 94.300 306.498 L 47.200 306.397 47.201 314.898 " stroke="none" fill="#dce4f4" fill-rule="evenodd"></path><path id="path3" d="M131.312 124.094 L 117.996 137.388 110.694 130.094 C 106.678 126.082,103.195 122.800,102.954 122.800 C 102.504 122.800,87.100 138.105,86.876 138.774 C 86.740 139.179,117.504 170.000,118.044 170.000 C 118.226 170.000,128.025 160.342,139.820 148.537 L 161.266 127.074 153.137 118.937 C 148.666 114.462,144.922 110.800,144.817 110.800 C 144.713 110.800,138.636 116.782,131.312 124.094 M131.525 182.600 C 124.381 189.750,118.280 195.597,117.968 195.594 C 117.655 195.591,115.302 193.476,112.738 190.894 C 110.174 188.312,106.887 185.033,105.434 183.608 L 102.792 181.015 94.796 189.004 C 90.398 193.398,86.800 197.175,86.800 197.398 C 86.800 197.621,93.820 204.822,102.400 213.400 L 118.001 228.997 139.400 207.600 C 151.170 195.831,160.800 185.939,160.800 185.617 C 160.800 184.938,145.634 169.600,144.963 169.600 C 144.717 169.600,138.670 175.450,131.525 182.600 M131.606 241.000 C 124.444 248.150,118.316 254.000,117.988 254.000 C 117.660 254.000,114.245 250.850,110.400 247.000 C 106.555 243.150,103.195 240.000,102.933 240.000 C 102.392 240.000,86.800 255.467,86.800 256.004 C 86.800 256.436,117.603 287.200,118.035 287.200 C 118.206 287.200,128.003 277.541,139.806 265.736 L 161.265 244.273 153.136 236.136 C 148.665 231.661,144.922 228.000,144.818 228.000 C 144.713 228.000,138.768 233.850,131.606 241.000 " stroke="none" fill="#7dec85" fill-rule="evenodd"></path><path id="path4" d="M47.467 47.467 C 47.320 47.613,47.200 105.933,47.200 177.065 L 47.200 306.397 94.300 306.498 L 141.400 306.600 141.502 353.300 L 141.603 400.000 159.168 400.000 L 176.733 400.000 176.717 224.000 L 176.701 48.000 135.574 48.000 C 108.588 48.000,94.362 47.862,94.200 47.600 C 93.922 47.150,47.915 47.018,47.467 47.467 M153.909 118.816 C 160.921 125.803,161.949 126.983,161.509 127.535 C 160.074 129.334,118.386 170.800,118.012 170.800 C 117.426 170.800,86.000 139.317,86.000 138.729 C 86.000 138.149,102.234 122.000,102.817 122.000 C 103.053 122.000,106.480 125.195,110.432 129.100 C 114.385 133.005,117.757 136.248,117.927 136.306 C 118.096 136.364,124.214 130.448,131.520 123.159 C 141.434 113.270,144.932 110.012,145.303 110.321 C 145.576 110.549,149.449 114.371,153.909 118.816 M153.758 177.234 L 162.116 185.667 140.363 207.434 C 128.399 219.405,118.338 229.200,118.007 229.200 C 117.321 229.200,86.000 198.042,86.000 197.360 C 86.000 196.924,102.087 180.707,102.735 180.489 C 102.916 180.428,106.432 183.711,110.547 187.785 L 118.030 195.192 131.228 181.996 C 138.487 174.738,144.645 168.800,144.913 168.800 C 145.181 168.800,149.161 172.595,153.758 177.234 M153.551 235.645 C 160.893 242.965,161.954 244.176,161.511 244.731 C 160.131 246.459,118.383 288.000,118.026 288.000 C 117.453 288.000,86.000 256.507,86.000 255.933 C 86.000 255.344,102.235 239.200,102.827 239.200 C 103.069 239.200,106.496 242.395,110.443 246.300 C 114.390 250.205,117.756 253.447,117.923 253.504 C 118.089 253.562,124.160 247.671,131.413 240.415 C 138.666 233.158,144.708 227.216,144.840 227.211 C 144.972 227.205,148.892 231.000,153.551 235.645 " stroke="none" fill="#f3f4fc" fill-rule="evenodd"></path></g></svg>